<svg xmlns="http://www.w3.org/2000/svg" xmlns:svg="http://www.w3.org/2000/svg" id="svg8" width="212.894" height="80.79" version="1.1" viewBox="0 0 56.328 21.376"><metadata id="metadata5"/><g id="layer1" transform="translate(-78.320343,-140.89726)"><g id="g4679" transform="translate(16.349119,19.192444)"><g style="font-style:normal;font-variant:normal;font-weight:400;font-stretch:normal;font-size:7.14743757px;line-height:1.25;font-family:'Comic Sans MS';-inkscape-font-specification:'Comic Sans MS, Normal';font-variant-ligatures:normal;font-variant-caps:normal;font-variant-numeric:normal;font-feature-settings:normal;text-align:start;letter-spacing:0;word-spacing:0;writing-mode:lr-tb;text-anchor:start;fill:#4d4d4d;fill-opacity:1;stroke:none;stroke-width:.67007226" id="text817" aria-label="Erikrios"><path style="font-style:normal;font-variant:normal;font-weight:400;font-stretch:normal;font-size:17.86859322px;font-family:'Kaushan Script';-inkscape-font-specification:'Kaushan Script, Normal';font-variant-ligatures:normal;font-variant-caps:normal;font-variant-numeric:normal;font-feature-settings:normal;text-align:start;writing-mode:lr-tb;text-anchor:start;fill:#4d4d4d;fill-opacity:1;stroke-width:.67007226" id="path885" d="m 90.083984,121.70508 c -0.29781,0.21442 -0.660997,0.62489 -1.089843,1.23242 -0.416934,0.60753 -0.857683,1.32824 -1.322266,2.16211 -0.452671,0.83387 -0.904751,1.73431 -1.357422,2.69922 -0.452671,0.9649 -0.857472,1.89934 -1.214844,2.80469 -0.357372,0.90534 -0.650617,1.73956 -0.876953,2.50195 -0.214423,0.76239 -0.320312,1.35826 -0.320312,1.78711 0,0.41693 0.03595,0.76117 0.107422,1.03515 0.07147,0.27399 0.160366,0.45373 0.267578,0.53711 0.07148,0.0596 0.137705,0.12951 0.197265,0.21289 0.07147,0.0953 0.154701,0.21448 0.25,0.35743 0.08339,0.15486 0.30845,0.25137 0.677735,0.28711 -0.03574,-0.10722 -0.05273,-0.24534 -0.05273,-0.41211 0,-0.27399 0.02267,-0.57095 0.07031,-0.89258 0.04765,-0.32164 0.113879,-0.64321 0.197266,-0.96485 0.0953,-0.33354 0.203141,-0.65511 0.322265,-0.96484 0.119123,-0.30972 0.249629,-0.58402 0.392578,-0.82227 0.34546,-0.59562 0.702982,-1.14987 1.072266,-1.6621 0.381197,-0.51224 0.75005,-0.95865 1.107422,-1.33985 0.369284,-0.38119 0.715474,-0.67815 1.037109,-0.89258 0.321635,-0.2144 0.601596,-0.32791 0.839844,-0.33984 0.131037,0 0.195312,0.0473 0.195312,0.14258 0,0.73856 -0.523975,1.6144 -1.572265,2.62695 -0.273986,0.27399 -0.534996,0.518 -0.785157,0.73242 -0.250159,0.20251 -0.458226,0.35763 -0.625,0.46485 0.131036,0.73856 0.278539,1.44794 0.445313,2.12695 0.166773,0.67901 0.340845,1.26159 0.519531,1.75 0.226336,0.60753 0.476015,1.0729 0.75,1.39453 0.285898,0.32164 0.588522,0.48242 0.910156,0.48242 0.190599,0 0.381667,-0.0303 0.572266,-0.0898 0.202511,-0.0477 0.387914,-0.11954 0.554688,-0.21484 0.166774,-0.0834 0.30861,-0.18361 0.427734,-0.30274 0.119125,-0.11912 0.209971,-0.23829 0.269531,-0.35742 -0.416933,-0.23825 -0.793406,-0.53149 -1.126953,-0.87695 -0.321635,-0.34546 -0.612927,-0.71998 -0.875,-1.125 -0.25016,-0.40502 -0.471511,-0.82116 -0.662109,-1.25 -0.178686,-0.42885 -0.326189,-0.8526 -0.445313,-1.26954 0.357372,-0.0715 0.695944,-0.22092 1.017578,-0.44726 0.333548,-0.23825 0.62484,-0.51821 0.875,-0.83984 0.262073,-0.33355 0.472092,-0.69107 0.626954,-1.07227 0.154861,-0.39311 0.232421,-0.77896 0.232421,-1.16016 0,-0.63135 -0.262963,-1.13833 -0.787109,-1.51953 -0.357371,0.0119 -0.737556,0.12542 -1.142578,0.33985 -0.393109,0.2025 -0.799863,0.4938 -1.216797,0.875 -0.416934,0.38119 -0.833067,0.84089 -1.25,1.37695 -0.416934,0.53606 -0.816069,1.13193 -1.197266,1.78711 0.285898,-0.86961 0.637754,-1.75111 1.054688,-2.64453 0.428846,-0.90535 0.892257,-1.75852 1.392578,-2.55664 0.500321,-0.81005 1.026249,-1.54775 1.574219,-2.21485 0.559882,-0.679 1.10652,-1.23326 1.642578,-1.66211 0,-0.16677 -0.05861,-0.35218 -0.177734,-0.55468 -0.107212,-0.20252 -0.245336,-0.39163 -0.41211,-0.57032 -0.166773,-0.19059 -0.350224,-0.35138 -0.552734,-0.48242 -0.190599,-0.13101 -0.370336,-0.20291 -0.53711,-0.21484 z m -17.605468,1.69726 c -0.202511,0 -0.495757,0.0246 -0.876954,0.0723 -0.381196,0.0357 -0.838942,0.0773 -1.375,0.125 -0.524145,0.0476 -1.114349,0.0949 -1.769531,0.14258 -0.655182,0.0357 -1.356941,0.0527 -2.107422,0.0527 -0.357372,0 -0.650617,-0.006 -0.876953,-0.0176 -0.214423,-0.0119 -0.439486,-0.0346 -0.677734,-0.0703 -0.03574,0.0953 -0.07168,0.20686 -0.107422,0.33789 -0.02383,0.13104 -0.03516,0.24455 -0.03516,0.33985 0,0.33354 0.119174,0.60784 0.357422,0.82226 0.238248,0.20254 0.565488,0.31604 0.982422,0.33985 -0.07147,0.34545 -0.149036,0.66703 -0.232422,0.96484 -0.07147,0.2859 -0.154702,0.58286 -0.25,0.89258 -0.0953,0.2978 -0.208807,0.61938 -0.339844,0.96484 -0.119124,0.34546 -0.26858,0.75026 -0.447266,1.21484 -0.416934,0.0953 -0.76879,0.19182 -1.054687,0.28711 -0.2859,0.0834 -0.458018,0.15531 -0.517578,0.21485 0.166774,0.42884 0.51863,0.7258 1.054687,0.89258 -0.559882,1.46522 -1.025246,2.63801 -1.394531,3.51953 -0.357372,0.8696 -0.637333,1.52037 -0.839844,1.94922 0.512233,0.83386 1.041874,1.35784 1.589844,1.57226 0.500321,-0.0834 0.948687,-0.15531 1.341797,-0.21484 0.405021,-0.0596 0.785207,-0.10685 1.142578,-0.14258 0.357372,-0.0357 0.709228,-0.066 1.054687,-0.0898 0.357372,-0.0119 0.731891,-0.0176 1.125,-0.0176 h 1.447266 c 0.369284,0.0119 0.72114,0.0232 1.054687,0.0352 0.02383,-0.0834 0.03516,-0.16661 0.03516,-0.25 v -0.23242 c 0,-0.27398 -0.04728,-0.52933 -0.142578,-0.76758 -0.08339,-0.23825 -0.189277,-0.4596 -0.320313,-0.66211 -1.084028,0.0715 -2.120646,0.17932 -3.109375,0.32227 -0.976816,0.14295 -1.949158,0.31507 -2.914062,0.51758 0.01191,-0.17869 0.06114,-0.44732 0.144531,-0.80469 0.0953,-0.35737 0.220139,-0.77916 0.375,-1.26758 0.166773,-0.4884 0.363508,-1.02371 0.589844,-1.60742 0.226335,-0.59562 0.476015,-1.21044 0.75,-1.8418 0.476496,-0.0596 0.975854,-0.13145 1.5,-0.21484 0.524145,-0.0953 1.042454,-0.14258 1.554687,-0.14258 0.262073,0 0.48909,0.0133 0.679688,0.0371 0.190598,0.0119 0.362716,0.0289 0.517578,0.0527 0.02383,-0.0715 0.04277,-0.1547 0.05469,-0.25 0.02383,-0.10722 0.03516,-0.20939 0.03516,-0.30469 0,-0.3812 -0.113507,-0.67815 -0.339843,-0.89258 -0.214423,-0.21442 -0.517047,-0.32227 -0.910157,-0.32227 -0.273985,0 -0.614509,0.0246 -1.019531,0.0723 -0.393108,0.0357 -0.814907,0.0887 -1.267578,0.16016 0.29781,-0.67901 0.547489,-1.2446 0.75,-1.69727 0.214423,-0.45267 0.392208,-0.82719 0.535156,-1.125 0.142949,-0.29781 0.256457,-0.53049 0.339844,-0.69726 0.0953,-0.16678 0.178526,-0.3049 0.25,-0.41211 0.500321,-0.0715 1.01863,-0.13578 1.554688,-0.19532 0.54797,-0.0715 1.149505,-0.10742 1.804687,-0.10742 0.178686,0 0.381087,0.006 0.607422,0.0176 0.238248,0.0119 0.542825,0.0365 0.912109,0.0723 -0.107211,-0.52415 -0.267998,-0.92895 -0.482421,-1.21485 -0.214423,-0.2859 -0.458437,-0.42969 -0.732422,-0.42969 z m 10.988281,0.96485 c -0.07148,0.1906 -0.14337,0.40433 -0.214844,0.64258 -0.07148,0.22633 -0.130088,0.44768 -0.177734,0.66211 -0.04765,0.21441 -0.08927,0.41682 -0.125,0.60742 -0.02383,0.17868 -0.03516,0.32248 -0.03516,0.42968 10e-7,0.0953 0.01699,0.20119 0.05273,0.32032 0.04765,0.11915 0.100596,0.20804 0.160156,0.26758 -0.03574,0.14294 -0.05273,0.25079 -0.05273,0.32226 0,0.0953 0.05294,0.19747 0.160156,0.30469 0.107212,0.0953 0.232051,0.15393 0.375,0.17773 0.04765,-0.0953 0.155492,-0.25608 0.322266,-0.48242 0.166774,-0.22633 0.352176,-0.46468 0.554687,-0.71484 0.202511,-0.26208 0.410577,-0.50609 0.625,-0.73242 0.214423,-0.23826 0.386542,-0.42366 0.517578,-0.55469 -0.0953,-0.13104 -0.23147,-0.26721 -0.410156,-0.41016 -0.178686,-0.15486 -0.37542,-0.29103 -0.589844,-0.41015 -0.214422,-0.13104 -0.430108,-0.23322 -0.644531,-0.30469 -0.202511,-0.0834 -0.374629,-0.125 -0.517578,-0.125 z m 20.380863,0 c -0.0715,0.1906 -0.14141,0.40433 -0.21289,0.64258 -0.0715,0.22633 -0.13203,0.44768 -0.17969,0.66211 -0.0477,0.21441 -0.0893,0.41682 -0.125,0.60742 -0.0238,0.17868 -0.0352,0.32248 -0.0352,0.42968 0,0.0953 0.017,0.20119 0.0527,0.32032 0.0477,0.11915 0.10257,0.20804 0.16211,0.26758 -0.0357,0.14294 -0.0547,0.25079 -0.0547,0.32226 0,0.0953 0.053,0.19747 0.16015,0.30469 0.10722,0.0953 0.234,0.15393 0.37696,0.17773 0.0476,-0.0953 0.15354,-0.25608 0.32031,-0.48242 0.16677,-0.22633 0.35217,-0.46468 0.55469,-0.71484 0.2025,-0.26208 0.41057,-0.50609 0.625,-0.73242 0.21442,-0.23826 0.38654,-0.42366 0.51758,-0.55469 -0.0953,-0.13104 -0.23147,-0.26721 -0.41016,-0.41016 -0.17869,-0.15486 -0.37542,-0.29103 -0.58984,-0.41015 -0.21443,-0.13104 -0.42816,-0.23322 -0.64258,-0.30469 -0.20252,-0.0834 -0.37659,-0.125 -0.51953,-0.125 z m 12.39648,3.00195 c -0.30973,0.0715 -0.60668,0.20198 -0.89258,0.39258 -0.2859,0.1906 -0.53557,0.42328 -0.75,0.69726 -0.21442,0.26208 -0.3885,0.55337 -0.51953,0.875 -0.13104,0.30972 -0.19531,0.62564 -0.19531,0.94727 0,0.25016 0.0284,0.50746 0.0879,0.76953 0.0596,0.25016 0.12015,0.51117 0.17969,0.78516 0.0715,0.26207 0.13578,0.53636 0.19531,0.82226 0.0596,0.2859 0.0898,0.57719 0.0898,0.875 -0.52414,0.0357 -1.01217,0.15491 -1.46484,0.35742 -0.44076,0.1906 -0.82856,0.4479 -1.16211,0.76954 -0.32163,0.30972 -0.57698,0.67291 -0.76758,1.08984 -0.19059,0.40502 -0.28515,0.83248 -0.28515,1.28516 0.0476,0.16677 0.13087,0.32756 0.25,0.48242 0.11912,0.16677 0.25529,0.31622 0.41015,0.44726 0.16678,0.13104 0.3389,0.23888 0.51758,0.32227 0.17869,0.0834 0.35276,0.13064 0.51953,0.14258 0.96491,-0.0953 1.71394,-0.44716 2.25,-1.05469 0.54797,-0.60753 0.82227,-1.41146 0.82227,-2.41211 0,-0.14295 -0.006,-0.26212 -0.0176,-0.35742 v -0.28516 c 0,-0.0715 0.006,-0.12637 0.0176,-0.16211 0.0238,-0.0477 0.0787,-0.0893 0.16211,-0.125 0.0834,-0.0357 0.20256,-0.0697 0.35742,-0.10547 0.16677,-0.0477 0.38617,-0.10257 0.66015,-0.16211 0.0477,-0.0477 0.0723,-0.12521 0.0723,-0.23242 0,-0.0715 -0.006,-0.11878 -0.0176,-0.14258 -0.19059,0 -0.38733,0.006 -0.58984,0.0176 -0.1906,0 -0.41195,0.006 -0.66211,0.0176 -0.0119,-0.0238 -0.0176,-0.0938 -0.0176,-0.21289 0,-1.1555 0.12484,-2.03133 0.375,-2.62695 0.25017,-0.59562 0.61335,-0.89453 1.08984,-0.89453 0.13104,0 0.23322,0.0606 0.30469,0.17968 0.0834,0.10722 0.125,0.24339 0.125,0.41016 0,0.0715 -0.019,0.1547 -0.0547,0.25 -0.0238,0.0953 -0.0521,0.19181 -0.0879,0.28711 -0.0357,0.0953 -0.0717,0.18419 -0.10742,0.26758 -0.0238,0.0715 -0.0371,0.12442 -0.0371,0.16015 0.0238,0.16676 0.10138,0.2576 0.23242,0.26953 0.0953,0 0.19748,-0.0662 0.30469,-0.19726 0.10721,-0.13103 0.20744,-0.29182 0.30274,-0.48242 0.0953,-0.20252 0.17288,-0.42387 0.23242,-0.66211 0.0714,-0.25016 0.11306,-0.48851 0.125,-0.71485 -0.0357,-0.14295 -0.13596,-0.32073 -0.30274,-0.53515 -0.16677,-0.22634 -0.35784,-0.44768 -0.57226,-0.66211 -0.21442,-0.21442 -0.43382,-0.40354 -0.66016,-0.57031 -0.21442,-0.1787 -0.3885,-0.28654 -0.51953,-0.32227 z m -41.271484,0.625 c -0.142948,0.14295 -0.273454,0.32269 -0.392578,0.53711 -0.119124,0.20251 -0.255295,0.48814 -0.410156,0.85742 -0.214423,0.51224 -0.435774,1.08915 -0.66211,1.73242 -0.226335,0.64327 -0.440067,1.28642 -0.642578,1.92969 -0.20251,0.63136 -0.382248,1.2329 -0.537109,1.80469 -0.142951,0.55989 -0.243174,1.01391 -0.302734,1.35937 0.03574,0.0953 0.113298,0.19552 0.232421,0.30274 0.119125,0.10721 0.24963,0.20939 0.392579,0.30469 0.15486,0.0953 0.304316,0.17288 0.447265,0.23242 0.154861,0.0714 0.285366,0.11306 0.392578,0.125 0.178686,-0.82196 0.364089,-1.53134 0.554688,-2.12696 0.202511,-0.59562 0.440858,-1.11959 0.714844,-1.57226 0.285897,-0.46458 0.624468,-0.88267 1.017578,-1.25195 0.393108,-0.3812 0.869805,-0.76705 1.429687,-1.16016 0.119124,0.34546 0.304528,0.66704 0.554688,0.96484 0.25016,0.2859 0.535787,0.51096 0.857422,0.67774 0.178686,-0.17869 0.339473,-0.36781 0.482421,-0.57032 0.15486,-0.20251 0.238087,-0.34063 0.25,-0.4121 -0.154861,-0.26208 -0.232421,-0.65555 -0.232421,-1.17969 0,-0.55988 0.107842,-1.12547 0.322265,-1.69727 -0.05956,-0.0953 -0.167404,-0.16522 -0.322265,-0.21289 -0.154861,-0.0595 -0.315648,-0.0898 -0.482422,-0.0898 -0.178686,0 -0.303526,0.0303 -0.375,0.0898 -0.428846,0.64328 -0.894211,1.22586 -1.394531,1.75 -0.488409,0.52415 -1.053997,1.07274 -1.697266,1.64453 0.250161,-0.76239 0.494174,-1.38854 0.732422,-1.87695 0.25016,-0.48841 0.535787,-0.92349 0.857422,-1.30469 -0.07147,-0.0834 -0.171698,-0.1666 -0.302735,-0.25 -0.131036,-0.0953 -0.280491,-0.18419 -0.447265,-0.26758 -0.166774,-0.0834 -0.338893,-0.15531 -0.517578,-0.21484 -0.178686,-0.0596 -0.352758,-0.1012 -0.519532,-0.125 z m 20.382813,0 c -0.142949,0.14295 -0.275408,0.32269 -0.394531,0.53711 -0.119124,0.20251 -0.255295,0.48814 -0.410157,0.85742 -0.214423,0.51224 -0.435774,1.08915 -0.662109,1.73242 -0.226335,0.64327 -0.440068,1.28642 -0.642578,1.92969 -0.202511,0.63136 -0.380295,1.2329 -0.535156,1.80469 -0.142951,0.55989 -0.245128,1.01391 -0.304688,1.35937 0.03574,0.0953 0.113298,0.19552 0.232422,0.30274 0.119123,0.10721 0.249629,0.20939 0.392578,0.30469 0.154861,0.0953 0.304317,0.17288 0.447266,0.23242 0.154861,0.0714 0.285366,0.11306 0.392578,0.125 0.178686,-0.82196 0.364089,-1.53134 0.554687,-2.12696 0.202511,-0.59562 0.440859,-1.11959 0.714844,-1.57226 0.285897,-0.46458 0.624469,-0.88267 1.017578,-1.25195 0.393109,-0.3812 0.869805,-0.76705 1.429688,-1.16016 0.119124,0.34546 0.304527,0.66704 0.554687,0.96484 0.250161,0.2859 0.535787,0.51096 0.857422,0.67774 0.178686,-0.17869 0.339473,-0.36781 0.482422,-0.57032 0.15486,-0.20251 0.238087,-0.34063 0.25,-0.4121 C 99.577561,131.46644 99.5,131.07297 99.5,130.54883 c 0,-0.55988 0.107842,-1.12547 0.322266,-1.69727 -0.05956,-0.0953 -0.167405,-0.16522 -0.322266,-0.21289 -0.154861,-0.0595 -0.315648,-0.0898 -0.482422,-0.0898 -0.178686,0 -0.303526,0.0303 -0.375,0.0898 -0.428847,0.64328 -0.894211,1.22586 -1.394531,1.75 -0.488409,0.52415 -1.053996,1.07274 -1.697266,1.64453 0.250161,-0.76239 0.494174,-1.38854 0.732422,-1.87695 0.25016,-0.48841 0.53774,-0.92349 0.859375,-1.30469 -0.07148,-0.0834 -0.173651,-0.1666 -0.304687,-0.25 -0.131037,-0.0953 -0.280493,-0.18419 -0.447266,-0.26758 -0.166773,-0.0834 -0.338892,-0.15531 -0.517578,-0.21484 -0.178686,-0.0596 -0.350805,-0.1012 -0.517578,-0.125 z m 13.519531,0.125 c -0.57179,0 -1.18466,0.24401 -1.83984,0.73242 -0.41694,0.30972 -0.80474,0.68053 -1.16211,1.10938 -0.35738,0.42884 -0.66566,0.88659 -0.92774,1.375 -0.26207,0.47649 -0.46643,0.97019 -0.60937,1.48242 -0.14295,0.51223 -0.21289,1.00787 -0.21289,1.48437 0,0.81004 0.2024,1.47586 0.60742,2 0.40502,0.52415 0.94599,0.82306 1.625,0.89454 0.71475,-0.15486 1.37118,-0.41783 1.9668,-0.78711 0.60753,-0.3812 1.12584,-0.84461 1.55468,-1.39258 0.44076,-0.54798 0.77933,-1.15713 1.01758,-1.82422 0.25016,-0.67901 0.375,-1.3921 0.375,-2.14258 0,-1.11977 -0.3159,-1.67969 -0.94726,-1.67969 -0.0596,0 -0.11249,0.006 -0.16016,0.0176 h -0.16016 c -0.36928,-0.64326 -0.74575,-1.06702 -1.12695,-1.26953 z m -26.908203,1.00195 c -0.273985,0.13104 -0.512333,0.33344 -0.714844,0.60743 -0.190598,0.27398 -0.357051,0.5596 -0.5,0.85742 -0.131037,0.28589 -0.238879,0.56019 -0.322265,0.82226 -0.08338,0.26208 -0.13633,0.45119 -0.160157,0.57032 -0.119124,0.53606 -0.221301,0.99576 -0.304687,1.37695 -0.07148,0.3812 -0.130088,0.70844 -0.177735,0.98242 -0.04765,0.26207 -0.0836,0.47581 -0.107421,0.64258 -0.01191,0.15486 -0.01953,0.28732 -0.01953,0.39453 h 0.002 c 0,0.26207 0.05861,0.48713 0.177735,0.67773 0.119124,0.1906 0.249629,0.35139 0.392578,0.48243 0.154861,0.11915 0.304317,0.20999 0.447266,0.26953 0.142945,0.0595 0.237502,0.0879 0.285156,0.0879 0.05956,0 0.08984,-0.0473 0.08984,-0.14258 0.01191,-0.0834 0.01758,-0.23285 0.01758,-0.44727 0.01191,-0.26207 0.07248,-0.56469 0.179687,-0.91015 0.107212,-0.35738 0.226386,-0.70356 0.357422,-1.03711 0.154861,-0.39311 0.291032,-0.76763 0.410156,-1.125 0.131036,-0.35737 0.269161,-0.70356 0.41211,-1.03711 0.154861,-0.33355 0.321314,-0.65512 0.5,-0.96484 0.190598,-0.30973 0.423281,-0.61997 0.697265,-0.92969 -0.238248,-0.34546 -0.525828,-0.61214 -0.859375,-0.80274 -0.333547,-0.20249 -0.600223,-0.32733 -0.802734,-0.375 z m 20.380863,0 c -0.27398,0.13104 -0.51233,0.33344 -0.71485,0.60743 -0.1906,0.27398 -0.35705,0.5596 -0.5,0.85742 -0.13103,0.28589 -0.23888,0.56019 -0.32226,0.82226 -0.0834,0.26208 -0.13636,0.45119 -0.16016,0.57032 -0.11913,0.53606 -0.2213,0.99576 -0.30469,1.37695 -0.0714,0.3812 -0.13006,0.70844 -0.17773,0.98242 -0.0477,0.26207 -0.0836,0.47581 -0.10742,0.64258 -0.0119,0.15486 -0.0176,0.28732 -0.0176,0.39453 0,0.26207 0.0586,0.48713 0.17773,0.67773 0.11913,0.1906 0.25159,0.35139 0.39453,0.48243 0.15486,0.11915 0.30236,0.20999 0.44532,0.26953 0.14292,0.0595 0.23944,0.0879 0.28711,0.0879 0.0595,0 0.0879,-0.0473 0.0879,-0.14258 0.0119,-0.0834 0.0195,-0.23285 0.0195,-0.44727 0.0119,-0.26207 0.0705,-0.56469 0.17773,-0.91015 0.10722,-0.35738 0.22639,-0.70356 0.35742,-1.03711 0.15486,-0.39311 0.29103,-0.76763 0.41016,-1.125 0.13104,-0.35737 0.26916,-0.70356 0.41211,-1.03711 0.15486,-0.33355 0.32131,-0.65512 0.5,-0.96484 0.1906,-0.30973 0.42329,-0.61997 0.69727,-0.92969 -0.23825,-0.34546 -0.52388,-0.61214 -0.85743,-0.80274 -0.33354,-0.20249 -0.60217,-0.32733 -0.80468,-0.375 z m 7.38476,0.60743 c 0.0834,0.13103 0.14396,0.28615 0.17969,0.46484 0.0357,0.17869 0.0527,0.4227 0.0527,0.73242 0,0.70283 -0.0945,1.36298 -0.28515,1.98242 -0.17869,0.61944 -0.43403,1.17371 -0.76758,1.66211 -0.32163,0.48842 -0.70944,0.89888 -1.16211,1.23242 -0.44076,0.32164 -0.92879,0.54299 -1.46484,0.66211 -0.11913,-0.0357 -0.22697,-0.18519 -0.32227,-0.44726 -0.0953,-0.26208 -0.14258,-0.53637 -0.14258,-0.82227 0,-0.23825 0.0359,-0.50688 0.10742,-0.80469 0.0715,-0.30971 0.17171,-0.62367 0.30274,-0.94531 0.13104,-0.33354 0.28616,-0.66274 0.46484,-0.98437 0.17868,-0.32164 0.36975,-0.61859 0.57227,-0.89258 0.29781,-0.38119 0.64967,-0.74438 1.05469,-1.08984 0.41693,-0.34546 0.88601,-0.59514 1.41015,-0.75 z m 4.7793,4.73437 c 0,0.30973 -0.0606,0.62563 -0.17969,0.94727 -0.10721,0.32163 -0.25471,0.62621 -0.44531,0.91211 -0.1906,0.28589 -0.41762,0.54123 -0.67969,0.76757 -0.25016,0.22634 -0.51879,0.39846 -0.80469,0.51758 -0.23824,-0.16677 -0.35742,-0.3805 -0.35742,-0.64258 0,-0.20251 0.0832,-0.44085 0.25,-0.71484 0.16678,-0.27398 0.3768,-0.53694 0.62696,-0.78711 0.25015,-0.26207 0.51684,-0.48147 0.80273,-0.66016 0.2859,-0.1906 0.54886,-0.30411 0.78711,-0.33984 z"/></g><g style="font-style:normal;font-variant:normal;font-weight:400;font-stretch:normal;font-size:5.30676651px;line-height:1.25;font-family:Gentium;-inkscape-font-specification:'Gentium, Normal';font-variant-ligatures:normal;font-variant-caps:normal;font-variant-numeric:normal;font-feature-settings:normal;text-align:start;letter-spacing:0;word-spacing:0;writing-mode:lr-tb;text-anchor:start;fill:#000;fill-opacity:.53046594;stroke:none;stroke-width:.66334581" id="text939" aria-label="Erik Rio Setiawan"><path style="font-style:normal;font-variant:normal;font-weight:400;font-stretch:normal;font-size:5.30676651px;font-family:Gentium;-inkscape-font-specification:'Gentium, Normal';font-variant-ligatures:normal;font-variant-caps:normal;font-variant-numeric:normal;font-feature-settings:normal;text-align:start;writing-mode:lr-tb;text-anchor:start;fill:#000;fill-opacity:.53046594;stroke-width:.66334581" id="path919" d="m 84.550781,138.98633 c -0.0881,0.0501 -0.188947,0.0922 -0.304687,0.125 -0.114013,0.0311 -0.230415,0.0578 -0.34961,0.082 v 0.10352 c 0.07428,0.009 0.135001,0.0165 0.181641,0.0234 0.04837,0.007 0.08541,0.0225 0.111328,0.0449 0.02764,0.0207 0.04605,0.0525 0.05469,0.0957 0.01037,0.0432 0.01563,0.10412 0.01563,0.18359 v 3.08789 c 0,0.0311 -0.03374,0.0596 -0.09766,0.082 -0.06392,0.0225 -0.151612,0.0468 -0.265625,0.0762 v 0.11133 h 1.035157 v -0.11133 c -0.06391,-0.0207 -0.114337,-0.0389 -0.152344,-0.0527 -0.03801,-0.0139 -0.06694,-0.0248 -0.08594,-0.0352 -0.019,-0.0121 -0.0302,-0.0248 -0.03711,-0.0351 -0.0052,-0.0104 -0.0078,-0.0214 -0.0078,-0.0352 v -1.0918 l 0.002,-0.002 h -0.002 v -2.56445 z m 0.09961,2.65234 0.0059,0.002 0.976562,1.25 c 0.038,0.0501 0.07791,0.0847 0.121094,0.10547 0.04491,0.0207 0.103228,0.0312 0.175782,0.0312 0.01728,0 0.04335,-5.7e-4 0.07617,-0.004 0.03455,-0.003 0.07182,-0.009 0.113282,-0.0156 0.04319,-0.005 0.08835,-0.0129 0.136718,-0.0215 0.0501,-0.009 0.100298,-0.0192 0.150391,-0.0312 l -0.01563,-0.11133 c -0.05009,0.004 -0.09503,0.006 -0.134766,0.004 -0.038,-0.003 -0.07242,-0.0111 -0.103515,-0.0215 -0.03109,-0.0104 -0.05807,-0.0237 -0.08398,-0.041 -0.02591,-0.019 -0.05199,-0.0426 -0.07617,-0.0703 l -0.962891,-1.14453 0.873047,-0.70508 c 0.07256,-0.0587 0.139211,-0.0982 0.203125,-0.11718 0.06392,-0.0207 0.134929,-0.0344 0.210937,-0.043 v -0.11328 h -0.982422 v 0.11328 c 0.04491,0 0.08699,0.002 0.125,0.008 0.03973,0.005 0.06649,0.0157 0.08203,0.0312 0.01729,0.0156 0.0199,0.0373 0.0078,0.0684 -0.01209,0.0294 -0.04651,0.0691 -0.103516,0.11914 z m -1.546875,-2.15039 c -0.04146,0 -0.08091,0.0103 -0.117188,0.0293 -0.03455,0.0173 -0.06611,0.0414 -0.09375,0.0742 -0.02764,0.0311 -0.04891,0.0681 -0.06445,0.11132 -0.01555,0.0432 -0.02344,0.0903 -0.02344,0.13868 0,0.0794 0.01796,0.14039 0.05078,0.18359 0.03455,0.0432 0.09023,0.0645 0.167969,0.0645 0.04318,0 0.08286,-0.008 0.11914,-0.0273 0.03627,-0.019 0.06784,-0.0451 0.09375,-0.0762 0.02764,-0.0328 0.04891,-0.0701 0.06445,-0.11328 0.01555,-0.0432 0.02344,-0.0903 0.02344,-0.13867 0,-0.16411 -0.07387,-0.2461 -0.220703,-0.2461 z m 8.240234,0 c -0.04146,0 -0.08091,0.0103 -0.117188,0.0293 -0.03455,0.0173 -0.06611,0.0414 -0.09375,0.0742 -0.02764,0.0311 -0.04891,0.0681 -0.06445,0.11132 -0.01555,0.0432 -0.02344,0.0903 -0.02344,0.13868 0,0.0794 0.01601,0.14039 0.04883,0.18359 0.03455,0.0432 0.09219,0.0645 0.169922,0.0645 0.04319,0 0.08287,-0.008 0.11914,-0.0273 0.03627,-0.019 0.06588,-0.0451 0.0918,-0.0762 0.02764,-0.0328 0.05086,-0.0701 0.06641,-0.11328 0.01555,-0.0432 0.02344,-0.0903 0.02344,-0.13867 0,-0.16411 -0.07387,-0.2461 -0.220703,-0.2461 z m 12.0957,0 c -0.0415,0 -0.0809,0.0103 -0.11718,0.0293 -0.0345,0.0173 -0.0661,0.0414 -0.0937,0.0742 -0.0277,0.0311 -0.0489,0.0681 -0.0645,0.11132 -0.0155,0.0432 -0.0234,0.0903 -0.0234,0.13868 0,0.0794 0.016,0.14039 0.0488,0.18359 0.0346,0.0432 0.0922,0.0645 0.16993,0.0645 0.0432,0 0.0829,-0.008 0.11914,-0.0273 0.0363,-0.019 0.0659,-0.0451 0.0918,-0.0762 0.0277,-0.0328 0.0509,-0.0701 0.0664,-0.11328 0.0155,-0.0432 0.0234,-0.0903 0.0234,-0.13867 0,-0.16411 -0.0739,-0.2461 -0.22071,-0.2461 z m -14.646481,0.17188 c -0.114013,0 -0.22012,0.005 -0.320313,0.0137 -0.09847,0.009 -0.193375,0.0196 -0.283203,0.0351 -0.08983,0.0138 -0.176847,0.0298 -0.259765,0.0488 -0.08292,0.0173 -0.164904,0.0379 -0.246094,0.0586 l 0.02344,0.16015 c 0.06392,-0.009 0.127267,-0.0168 0.189453,-0.0254 0.06392,-0.0103 0.12704,-0.0206 0.1875,-0.0293 v 2.81054 c 0,0.0242 -0.03419,0.0527 -0.101562,0.082 -0.06564,0.0276 -0.157923,0.052 -0.275391,0.0762 v 0.11133 l 1.166016,0.002 v -0.11329 c -0.126107,-0.0242 -0.219063,-0.0507 -0.28125,-0.0801 -0.06219,-0.0311 -0.09375,-0.0554 -0.09375,-0.0762 v -1.3086 c 0.04837,0.0102 0.09571,0.0181 0.140625,0.0234 0.04492,0.003 0.08985,0.004 0.134766,0.004 h 0.04102 l 0.880859,1.44336 c 0.02419,0.038 0.05883,0.0722 0.105469,0.10157 0.04837,0.0277 0.09834,0.041 0.148438,0.041 0.06737,0 0.151985,-0.0129 0.253906,-0.0371 0.103647,-0.0259 0.212159,-0.0577 0.326172,-0.0957 l -0.02734,-0.11133 c -0.05873,0.005 -0.111563,0.008 -0.158203,0.006 -0.04491,-0.002 -0.08699,-0.007 -0.125,-0.0176 -0.03628,-0.0121 -0.07047,-0.0303 -0.101562,-0.0527 -0.02937,-0.0225 -0.05612,-0.0516 -0.08203,-0.0879 l -0.857422,-1.23047 c 0.124378,-0.0277 0.23815,-0.0695 0.341797,-0.12305 0.103648,-0.0553 0.193523,-0.12193 0.269531,-0.20312 0.07601,-0.0812 0.134322,-0.17588 0.175782,-0.28125 0.04319,-0.1071 0.06445,-0.22636 0.06445,-0.35938 0,-0.11056 -0.0263,-0.21358 -0.07813,-0.30859 -0.0501,-0.0967 -0.126822,-0.18113 -0.230469,-0.25195 -0.101921,-0.0708 -0.229294,-0.12629 -0.384765,-0.16602 -0.153745,-0.0397 -0.335674,-0.0586 -0.542969,-0.0586 z m 8.408203,0 c -0.126105,0 -0.237697,0.0131 -0.337891,0.0391 -0.100192,0.0259 -0.189842,0.0605 -0.267578,0.10547 -0.07601,0.0432 -0.141986,0.0956 -0.197265,0.15429 -0.05355,0.057 -0.09827,0.11554 -0.132813,0.17774 -0.03455,0.0622 -0.05867,0.1253 -0.07422,0.1875 -0.01555,0.0622 -0.02344,0.12029 -0.02344,0.17383 0,0.1261 0.02367,0.23462 0.07031,0.32617 0.04664,0.0898 0.107586,0.16918 0.183594,0.23828 0.07601,0.0691 0.163028,0.12984 0.259766,0.18164 0.09674,0.0518 0.194729,0.0998 0.294921,0.14648 0.101921,0.0466 0.202091,0.094 0.298829,0.14063 0.09674,0.0466 0.181803,0.0995 0.257812,0.1582 0.07601,0.0587 0.136954,0.12517 0.183594,0.20117 0.04664,0.076 0.07031,0.16807 0.07031,0.27344 0,0.0829 -0.01886,0.1601 -0.05859,0.23438 -0.03973,0.0726 -0.09234,0.13614 -0.15625,0.1914 -0.06392,0.0553 -0.135381,0.10002 -0.214844,0.13282 -0.07774,0.0311 -0.154686,0.0469 -0.232422,0.0469 -0.0881,0 -0.17512,-0.0107 -0.259766,-0.0332 -0.08292,-0.0242 -0.159868,-0.061 -0.232422,-0.10938 -0.07255,-0.0501 -0.140711,-0.11126 -0.201171,-0.18554 -0.05873,-0.0743 -0.106751,-0.16371 -0.146485,-0.26563 l -0.107422,-0.0117 c -0.0138,0.0466 -0.02214,0.10518 -0.02734,0.17774 -0.0052,0.0726 -0.0078,0.14401 -0.0078,0.21484 0,0.0691 0.0026,0.12984 0.0078,0.18164 0.0069,0.0518 0.01525,0.081 0.02734,0.0879 0.06046,0.0398 0.126214,0.0764 0.195313,0.10742 0.07083,0.0311 0.142065,0.0554 0.212891,0.0762 0.07082,0.0225 0.139659,0.0407 0.207031,0.0527 0.06737,0.0121 0.12854,0.0176 0.185547,0.0176 0.12956,0 0.248366,-0.0158 0.355468,-0.0469 0.10883,-0.0311 0.20637,-0.0712 0.291016,-0.12304 0.08638,-0.0518 0.16047,-0.11254 0.222656,-0.18164 0.06392,-0.0708 0.116743,-0.14493 0.158203,-0.22266 0.04319,-0.0795 0.07498,-0.16099 0.0957,-0.24219 0.02073,-0.0812 0.03125,-0.16054 0.03125,-0.23828 10e-7,-0.12783 -0.02367,-0.2392 -0.07031,-0.33594 -0.04664,-0.0985 -0.109764,-0.18571 -0.1875,-0.26172 -0.07601,-0.076 -0.163253,-0.14439 -0.261719,-0.20312 -0.09674,-0.0588 -0.197133,-0.11204 -0.300781,-0.16211 -0.10192,-0.0518 -0.200363,-0.10177 -0.298828,-0.14844 -0.09674,-0.0467 -0.183983,-0.0966 -0.261719,-0.14844 -0.07601,-0.0535 -0.138907,-0.10967 -0.185547,-0.17187 -0.04664,-0.0639 -0.06836,-0.13756 -0.06836,-0.21875 0,-0.0484 0.0086,-0.0986 0.0293,-0.15039 0.02246,-0.0535 0.05665,-0.10133 0.101562,-0.14453 0.04491,-0.0449 0.102777,-0.0817 0.171875,-0.10938 0.0691,-0.0277 0.151309,-0.041 0.248047,-0.041 0.04837,0 0.09879,0.005 0.152344,0.0156 0.05355,0.009 0.108556,0.0246 0.162109,0.0488 0.05528,0.0225 0.10833,0.0538 0.160157,0.0918 0.05355,0.038 0.103977,0.0856 0.152343,0.14258 l 0.09375,0.0137 c 0.02073,-0.019 0.04463,-0.0455 0.07227,-0.0801 0.02937,-0.0346 0.05567,-0.069 0.07813,-0.10352 0.02418,-0.0363 0.04041,-0.0683 0.05078,-0.0977 0.01209,-0.0311 0.01209,-0.0522 0,-0.0625 -0.03109,-0.0346 -0.07363,-0.0664 -0.128906,-0.0957 -0.05528,-0.0293 -0.116448,-0.0554 -0.185547,-0.0762 -0.06737,-0.0207 -0.14124,-0.0368 -0.220703,-0.0488 -0.07774,-0.0121 -0.156639,-0.0176 -0.234375,-0.0176 z m 4.371098,0.0254 -0.30665,0.26953 v 0.63867 h -0.1875 l -0.20117,0.16992 0.0527,0.0723 h 0.33593 v 1.59375 c 0,0.12092 0.011,0.22372 0.0352,0.30664 0.0242,0.0829 0.0581,0.14937 0.0996,0.20117 0.0415,0.0501 0.0891,0.0869 0.14258,0.10938 0.0553,0.0225 0.11141,0.0332 0.17187,0.0332 0.0449,0 0.10013,-0.008 0.16407,-0.0254 0.0639,-0.0156 0.13275,-0.0392 0.20703,-0.0703 0.076,-0.0328 0.15537,-0.0725 0.23828,-0.11915 0.0829,-0.0483 0.16731,-0.10381 0.25195,-0.16601 L 102.5,142.56641 c -0.13475,0.0691 -0.24634,0.1162 -0.33789,0.13867 -0.0915,0.0225 -0.16805,0.0332 -0.22852,0.0332 -0.0518,0 -0.0965,-0.008 -0.13281,-0.0234 -0.0345,-0.0173 -0.0635,-0.0462 -0.0859,-0.0859 -0.0225,-0.0415 -0.0385,-0.0947 -0.0488,-0.16211 -0.009,-0.0691 -0.0117,-0.15612 -0.0117,-0.25977 v -1.37109 h 0.13476 c 0.13992,0 0.25129,0.0105 0.33594,0.0312 0.0846,0.019 0.14799,0.0398 0.18945,0.0605 0.0173,-0.007 0.0361,-0.0201 0.0586,-0.0391 0.0242,-0.019 0.05,-0.0402 0.0742,-0.0644 0.0242,-0.0259 0.0459,-0.0522 0.0683,-0.0781 0.0242,-0.0276 0.045,-0.0539 0.0606,-0.0781 l -0.0762,-0.0742 h -0.8457 V 139.75 Z m -23.867192,0.0527 v 0.11133 c 0.124379,0.0242 0.219063,0.051 0.28125,0.082 0.06391,0.0311 0.0957,0.0574 0.0957,0.0781 v 2.72265 c 0,0.0242 -0.03419,0.0527 -0.101562,0.082 -0.06564,0.0276 -0.157924,0.052 -0.275391,0.0762 v 0.11133 h 2.236328 c 0.01382,-0.0501 0.03201,-0.12967 0.05273,-0.24023 0.02246,-0.11228 0.04087,-0.24206 0.05469,-0.39063 l -0.111328,-0.0469 c -0.03627,0.10192 -0.07309,0.1815 -0.109375,0.24023 -0.03455,0.0588 -0.074,0.1037 -0.117187,0.13477 -0.04319,0.0293 -0.09338,0.048 -0.150391,0.0566 -0.05528,0.009 -0.121709,0.0137 -0.201172,0.0137 h -0.333984 c -0.114013,0 -0.206292,-0.003 -0.275391,-0.01 -0.0691,-0.009 -0.12215,-0.0214 -0.160156,-0.0352 -0.038,-0.0155 -0.06408,-0.0318 -0.07617,-0.0508 -0.01209,-0.0207 -0.01758,-0.0444 -0.01758,-0.0703 v -1.29883 h 0.365234 c 0.07255,0 0.135673,0.002 0.1875,0.008 0.05355,0.005 0.09871,0.0153 0.136719,0.0273 0.03973,0.0121 0.07415,0.0257 0.103515,0.043 0.03109,0.0173 0.06002,0.0385 0.08594,0.0645 0.01901,-0.0138 0.03787,-0.0301 0.05859,-0.0508 0.02246,-0.0225 0.04373,-0.0461 0.06445,-0.0703 0.02246,-0.0259 0.0435,-0.0522 0.0625,-0.0781 0.02073,-0.0276 0.03891,-0.0539 0.05273,-0.0781 l -0.06836,-0.0723 h -1.048828 v -1.12696 h 0.949218 c 0.03109,0 0.05785,0.008 0.08203,0.0215 0.02591,0.0121 0.04718,0.0336 0.06445,0.0664 0.01727,0.0311 0.03065,0.0734 0.04102,0.12696 0.01208,0.0535 0.01997,0.11975 0.02344,0.19922 h 0.117188 c 0.01037,-0.0328 0.02088,-0.0727 0.03125,-0.1211 0.01209,-0.0484 0.02284,-0.0988 0.0332,-0.15234 0.01037,-0.0536 0.01848,-0.10662 0.02539,-0.16016 0.0069,-0.0535 0.01216,-0.1035 0.01563,-0.14844 l -0.08398,-0.0644 z m 10.992188,0.13867 v 0.002 c 0.160654,0 0.300501,0.016 0.417968,0.0488 0.117468,0.0311 0.213054,0.0758 0.289063,0.13282 0.07601,0.057 0.133648,0.12366 0.169922,0.20312 0.03801,0.0795 0.05664,0.16671 0.05664,0.26172 0,0.22975 -0.07913,0.40642 -0.236328,0.52734 -0.157199,0.1192 -0.379257,0.17774 -0.666015,0.17774 -0.03801,0 -0.07483,5e-5 -0.109375,-0.002 -0.03455,-0.002 -0.07445,-0.007 -0.121094,-0.0156 v -1.32812 c 0.06737,-0.005 0.133572,-0.008 0.199219,-0.008 z m -7.72461,0.63867 c -0.08637,0.0484 -0.184138,0.0881 -0.292968,0.11915 -0.107103,0.0294 -0.215841,0.0585 -0.328126,0.0879 v 0.10351 c 0.04837,0.004 0.08827,0.006 0.121094,0.01 0.03282,0.002 0.06153,0.006 0.08398,0.0117 0.02419,0.005 0.04282,0.0109 0.05664,0.0195 0.01555,0.007 0.02892,0.0172 0.04102,0.0293 0.0069,0.009 0.01458,0.0194 0.02148,0.0332 0.0086,0.0138 0.01433,0.0324 0.01953,0.0566 0.0052,0.0242 0.01021,0.056 0.01367,0.0957 0.0035,0.038 0.0059,0.0856 0.0059,0.14258 v 1.50781 c 0,0.0293 -0.03179,0.0581 -0.0957,0.084 -0.06392,0.0241 -0.153566,0.0483 -0.267579,0.0742 v 0.11133 h 1.189454 v -0.11133 c -0.162379,-0.0241 -0.276151,-0.0505 -0.341797,-0.0781 -0.06391,-0.0276 -0.0957,-0.0541 -0.0957,-0.0801 v -1.01562 c 0.04146,-0.14684 0.08684,-0.27158 0.138672,-0.37696 0.05355,-0.1071 0.108556,-0.19435 0.162109,-0.26172 0.05355,-0.0691 0.104203,-0.11932 0.154297,-0.15039 0.05182,-0.0328 0.09676,-0.0508 0.134765,-0.0508 0.03282,0 0.06438,0.008 0.09375,0.0215 0.03109,0.0121 0.05785,0.0332 0.08203,0.0625 0.02591,0.0276 0.04936,0.0649 0.06836,0.11328 0.019,0.0484 0.0326,0.10863 0.04297,0.17773 h 0.111328 c 0.02073,-0.0466 0.04177,-0.10473 0.0625,-0.17383 0.02073,-0.0691 0.03674,-0.13745 0.04883,-0.20312 0.01382,-0.0657 0.02148,-0.12376 0.02148,-0.17383 0.0017,-0.0501 -0.0059,-0.0795 -0.02148,-0.0898 -0.06391,-0.0363 -0.127486,-0.0624 -0.191406,-0.0762 -0.06391,-0.0138 -0.122455,-0.0195 -0.177735,-0.0195 -0.07428,0 -0.145745,0.0162 -0.214843,0.0508 -0.06737,0.0345 -0.133126,0.0843 -0.195313,0.14648 -0.06219,0.0605 -0.120501,0.13192 -0.175781,0.21484 -0.05355,0.0829 -0.103751,0.17062 -0.150391,0.26563 l -0.0332,-0.58789 z m 2.185547,0 c -0.04491,0.0207 -0.09488,0.0418 -0.148437,0.0625 -0.05355,0.0207 -0.109236,0.0396 -0.167969,0.0586 -0.05873,0.0173 -0.119228,0.0333 -0.179688,0.0488 -0.05873,0.0139 -0.114415,0.0268 -0.167968,0.0371 v 0.10351 c 0.09156,0.009 0.16257,0.0194 0.210937,0.0332 0.05009,0.0139 0.08496,0.0373 0.107422,0.0684 0.02245,0.0294 0.0356,0.0717 0.03906,0.12696 0.0035,0.0535 0.0059,0.12479 0.0059,0.21289 v 1.46484 c 0,0.0242 -0.03156,0.0527 -0.09375,0.082 -0.06219,0.0276 -0.152064,0.052 -0.269531,0.0762 v 0.11133 h 1.115234 v -0.11133 c -0.126105,-0.0242 -0.21861,-0.0507 -0.277344,-0.0801 -0.05701,-0.0311 -0.08594,-0.0574 -0.08594,-0.0781 v -2.2168 z m 8.240235,0 c -0.04491,0.0207 -0.09489,0.0418 -0.148438,0.0625 -0.05355,0.0207 -0.109235,0.0396 -0.167969,0.0586 -0.05873,0.0173 -0.119227,0.0333 -0.179687,0.0488 -0.05873,0.0139 -0.114416,0.0268 -0.167969,0.0371 v 0.10351 c 0.09156,0.009 0.160618,0.0194 0.208984,0.0332 0.05009,0.0139 0.08692,0.0373 0.109375,0.0684 0.02245,0.0294 0.0356,0.0717 0.03906,0.12696 0.0035,0.0535 0.0059,0.12479 0.0059,0.21289 v 1.46484 c 0,0.0242 -0.03156,0.0527 -0.09375,0.082 -0.06219,0.0276 -0.152064,0.052 -0.269531,0.0762 v 0.11133 h 1.113281 v -0.11133 c -0.126105,-0.0242 -0.21861,-0.0507 -0.277344,-0.0801 -0.05701,-0.0311 -0.08398,-0.0574 -0.08398,-0.0781 v -2.2168 z m 1.982421,0 c -0.10883,10e-6 -0.21426,0.0162 -0.314453,0.0508 -0.100192,0.0345 -0.195102,0.0821 -0.283203,0.14257 -0.08637,0.0605 -0.165728,0.13411 -0.238281,0.21875 -0.07082,0.0829 -0.131767,0.17326 -0.183594,0.27344 -0.0501,0.0985 -0.08977,0.20389 -0.11914,0.31445 -0.02764,0.11057 -0.04102,0.22194 -0.04102,0.33594 0,0.17621 0.02412,0.33995 0.07422,0.49024 0.05182,0.15028 0.125466,0.27984 0.21875,0.38867 0.09501,0.10882 0.208557,0.19366 0.339843,0.25586 0.133015,0.0622 0.281204,0.0937 0.445313,0.0937 0.105375,0 0.206222,-0.0163 0.304687,-0.0508 0.09847,-0.0328 0.190971,-0.0802 0.277344,-0.14063 0.0881,-0.0605 0.169634,-0.13192 0.242188,-0.21484 0.07255,-0.0847 0.13372,-0.17693 0.185546,-0.27539 0.05182,-0.0985 0.09368,-0.20194 0.123047,-0.3125 0.02937,-0.11229 0.04297,-0.22584 0.04297,-0.33985 0,-0.1762 -0.0263,-0.33994 -0.07813,-0.49023 -0.0501,-0.15029 -0.121786,-0.27984 -0.216797,-0.38867 -0.09328,-0.11055 -0.206829,-0.19562 -0.339844,-0.25781 -0.131286,-0.0622 -0.277071,-0.0938 -0.439453,-0.0938 z m 6.345703,0 c -0.04664,0 -0.09661,0.006 -0.148437,0.0176 -0.05009,0.0103 -0.100517,0.0259 -0.152344,0.0449 -0.05183,0.019 -0.102024,0.0405 -0.15039,0.0664 -0.04664,0.0241 -0.08895,0.0502 -0.126953,0.0762 -0.08983,0.0622 -0.171362,0.13411 -0.242188,0.21875 -0.07082,0.0847 -0.131541,0.17715 -0.181641,0.27735 -0.04837,0.10019 -0.08541,0.20607 -0.111328,0.31836 -0.02591,0.11228 -0.03711,0.22801 -0.03711,0.34375 0,0.1831 0.02653,0.34752 0.08008,0.49609 0.05528,0.14683 0.127194,0.27353 0.21875,0.37891 0.09155,0.10365 0.197212,0.18323 0.316406,0.24023 0.120923,0.057 0.247845,0.0859 0.38086,0.0859 0.0881,0 0.16986,-0.006 0.24414,-0.0195 0.07601,-0.0121 0.152508,-0.0406 0.228514,-0.082 0.0777,-0.0415 0.15972,-0.0998 0.2461,-0.17579 0.0881,-0.0777 0.18894,-0.17858 0.30468,-0.30468 -0.009,-0.0138 -0.0218,-0.0322 -0.0391,-0.0547 -0.0155,-0.0225 -0.0342,-0.0407 -0.0566,-0.0527 -0.0967,0.0794 -0.18135,0.14279 -0.25391,0.18946 -0.0708,0.0466 -0.13462,0.0832 -0.19336,0.10742 -0.05873,0.0224 -0.114185,0.036 -0.166011,0.043 -0.05009,0.005 -0.102697,0.008 -0.15625,0.008 -0.119196,0 -0.225303,-0.0268 -0.320313,-0.082 -0.09501,-0.0553 -0.176541,-0.12914 -0.242187,-0.2207 -0.06565,-0.0933 -0.116071,-0.19917 -0.152344,-0.31836 -0.03455,-0.12093 -0.05078,-0.2474 -0.05078,-0.37696 v -0.008 h 1.361326 c 0.0553,-0.0225 0.11031,-0.0488 0.16211,-0.0781 0.0519,-0.0294 0.092,-0.0612 0.12305,-0.0957 0,-0.0726 -0.006,-0.14709 -0.0176,-0.22656 -0.0121,-0.0812 -0.0332,-0.16054 -0.0625,-0.23828 -0.0276,-0.0777 -0.0644,-0.1516 -0.10937,-0.2207 -0.0449,-0.0709 -0.0984,-0.1318 -0.16407,-0.1836 -0.0656,-0.0536 -0.14432,-0.0959 -0.23242,-0.12695 -0.08638,-0.0311 -0.184815,-0.0469 -0.298828,-0.0469 z m 3.767578,0 c -0.0449,0.0207 -0.0949,0.0418 -0.14844,0.0625 -0.0535,0.0207 -0.10923,0.0396 -0.16797,0.0586 -0.0587,0.0173 -0.11922,0.0333 -0.17968,0.0488 -0.0588,0.0139 -0.11444,0.0268 -0.16797,0.0371 v 0.10351 c 0.0915,0.009 0.16254,0.0194 0.21094,0.0332 0.0501,0.0139 0.0849,0.0373 0.10742,0.0684 0.0226,0.0294 0.0357,0.0717 0.0391,0.12696 0.003,0.0535 0.006,0.12479 0.006,0.21289 v 1.46484 c 0,0.0242 -0.0315,0.0527 -0.0937,0.082 -0.0622,0.0276 -0.15207,0.052 -0.26953,0.0762 v 0.11133 h 1.11523 v -0.11133 c -0.1261,-0.0242 -0.21861,-0.0507 -0.27734,-0.0801 -0.057,-0.0311 -0.0859,-0.0574 -0.0859,-0.0781 v -2.2168 z m 2.00391,0 c -0.10884,0 -0.22043,0.0165 -0.33789,0.0527 -0.11574,0.0363 -0.22666,0.086 -0.33204,0.14648 -0.10364,0.0605 -0.19615,0.12952 -0.27734,0.20899 -0.0812,0.0795 -0.14191,0.16362 -0.18164,0.25 l 0.0371,0.0996 c 0.0207,0.005 0.0551,0.005 0.10352,-0.004 0.0501,-0.009 0.10032,-0.0216 0.15039,-0.0371 0.0518,-0.0155 0.0946,-0.0318 0.13086,-0.0508 0.0383,-0.0207 0.0567,-0.0391 0.0547,-0.0547 -0.005,-0.0518 0.003,-0.0992 0.0254,-0.14062 0.0225,-0.0432 0.054,-0.0803 0.0937,-0.11133 0.0398,-0.0311 0.0871,-0.055 0.14063,-0.0723 0.0536,-0.017 0.10684,-0.0273 0.16211,-0.0293 0.0847,-0.002 0.15567,0.009 0.21094,0.0293 0.057,0.019 0.10196,0.0479 0.13476,0.0859 0.0329,0.0363 0.0565,0.0791 0.0703,0.13086 0.0138,0.0501 0.0195,0.10533 0.0195,0.16406 v 0.35938 l -0.53124,0.10742 c -0.14511,0.0294 -0.27203,0.0719 -0.38086,0.12891 -0.10883,0.0553 -0.19916,0.12126 -0.27344,0.19726 -0.0726,0.076 -0.12802,0.16062 -0.16602,0.25391 -0.0363,0.0916 -0.0547,0.18909 -0.0547,0.29101 -1e-5,0.1002 0.0162,0.18504 0.0508,0.25586 0.0346,0.0708 0.0791,0.1289 0.13086,0.17383 0.0535,0.0449 0.11206,0.0769 0.17773,0.0977 0.0656,0.0207 0.12921,0.0312 0.19141,0.0312 0.0553,0 0.11597,-0.008 0.18164,-0.0254 0.0674,-0.0173 0.13861,-0.0438 0.21289,-0.0801 0.0743,-0.0363 0.15077,-0.0836 0.22851,-0.14063 0.0777,-0.057 0.15469,-0.12343 0.23242,-0.20117 0.003,0.13993 0.0245,0.24866 0.0625,0.32813 0.038,0.0795 0.0856,0.11914 0.14258,0.11914 0.0484,0 0.11983,-0.0237 0.21485,-0.0703 0.0967,-0.0449 0.2184,-0.11683 0.36523,-0.21875 v -0.002 l -0.0391,-0.11523 c -0.0691,0.0293 -0.12216,0.048 -0.16016,0.0566 -0.038,0.009 -0.0696,0.0137 -0.0937,0.0137 -0.0311,0 -0.0552,-0.0158 -0.0742,-0.0469 -0.019,-0.0311 -0.0293,-0.0837 -0.0293,-0.15625 v -1.46094 c 0,-0.17793 -0.0507,-0.3156 -0.1543,-0.41406 -0.10192,-0.1002 -0.24943,-0.1504 -0.43945,-0.1504 z m 6.04883,0 c -0.10884,0 -0.22238,0.0165 -0.33985,0.0527 -0.11574,0.0363 -0.22666,0.086 -0.33203,0.14648 -0.10365,0.0605 -0.19615,0.12952 -0.27734,0.20899 -0.0812,0.0795 -0.13996,0.16362 -0.17969,0.25 l 0.0352,0.0996 c 0.0207,0.005 0.0551,0.005 0.10352,-0.004 0.0501,-0.009 0.10032,-0.0216 0.15039,-0.0371 0.0518,-0.0155 0.0965,-0.0318 0.13281,-0.0508 0.0383,-0.0207 0.0567,-0.0391 0.0547,-0.0547 -0.005,-0.0518 0.003,-0.0992 0.0254,-0.14062 0.0225,-0.0432 0.054,-0.0803 0.0937,-0.11133 0.0397,-0.0311 0.0851,-0.055 0.13867,-0.0723 0.0536,-0.017 0.1088,-0.0273 0.16407,-0.0293 0.0847,-0.002 0.15371,0.009 0.20898,0.0293 0.057,0.019 0.10197,0.0479 0.13477,0.0859 0.0329,0.0363 0.0565,0.0791 0.0703,0.13086 0.0138,0.0501 0.0215,0.10533 0.0215,0.16406 v 0.35938 l -0.53125,0.10742 c -0.1451,0.0294 -0.27202,0.0719 -0.38086,0.12891 -0.10883,0.0553 -0.20111,0.12126 -0.27539,0.19726 -0.0725,0.076 -0.12801,0.16062 -0.16601,0.25391 -0.0363,0.0916 -0.0547,0.18909 -0.0547,0.29101 0,0.1002 0.0182,0.18504 0.0527,0.25586 0.0346,0.0708 0.0771,0.1289 0.12891,0.17383 0.0535,0.0449 0.11402,0.0769 0.17969,0.0977 0.0656,0.0207 0.1292,0.0312 0.1914,0.0312 0.0553,0 0.11598,-0.008 0.18164,-0.0254 0.0674,-0.0173 0.13862,-0.0438 0.2129,-0.0801 0.0743,-0.0363 0.14882,-0.0836 0.22656,-0.14063 0.0777,-0.057 0.15664,-0.12343 0.23437,-0.20117 0.003,0.13993 0.0245,0.24866 0.0625,0.32813 0.038,0.0795 0.0856,0.11914 0.14258,0.11914 0.0484,0 0.11984,-0.0237 0.21485,-0.0703 0.0967,-0.0449 0.2184,-0.11683 0.36523,-0.21875 v -0.002 l -0.0391,-0.11523 c -0.0691,0.0293 -0.12216,0.048 -0.16016,0.0566 -0.038,0.009 -0.0696,0.0137 -0.0937,0.0137 -0.0311,0 -0.0572,-0.0158 -0.0762,-0.0469 -0.019,-0.0311 -0.0273,-0.0837 -0.0273,-0.15625 v -1.46094 c 0,-0.17793 -0.0526,-0.3156 -0.15624,-0.41406 -0.10192,-0.1002 -0.24748,-0.1504 -0.4375,-0.1504 z m 1.79492,0 c -0.0967,0.0484 -0.19473,0.0907 -0.29492,0.12696 -0.1002,0.0345 -0.20871,0.0611 -0.32618,0.0801 v 0.10351 c 0.0881,0.0104 0.15675,0.0209 0.20508,0.0312 0.0484,0.0103 0.083,0.0264 0.10547,0.0488 0.024,0.0225 0.0396,0.054 0.0449,0.0937 0.005,0.0397 0.008,0.0928 0.008,0.16016 v 1.57226 c 0,0.0293 -0.0318,0.0578 -0.0957,0.082 -0.0639,0.0225 -0.15356,0.0468 -0.26758,0.0762 v 0.11133 h 1.11328 v -0.11133 c -0.11226,-0.0241 -0.19995,-0.0485 -0.26562,-0.0762 -0.0639,-0.0276 -0.0957,-0.0561 -0.0957,-0.082 v -1.15234 c 0.0829,-0.13474 0.1649,-0.24829 0.24609,-0.33985 0.0829,-0.0933 0.1601,-0.16761 0.23437,-0.22461 0.076,-0.057 0.14723,-0.0991 0.2129,-0.125 0.0657,-0.0259 0.12615,-0.0391 0.17968,-0.0391 0.0605,0 0.11088,0.008 0.15235,0.0215 0.0432,0.0138 0.0776,0.0401 0.10351,0.0781 0.0259,0.038 0.0446,0.0886 0.0566,0.1543 0.0121,0.0657 0.0195,0.15244 0.0195,0.25781 v 1.36914 c 0,0.0242 -0.0311,0.05 -0.0898,0.0742 -0.0587,0.0242 -0.14906,0.0512 -0.27344,0.084 v 0.11133 h 1.11328 v -0.11133 c -0.13648,-0.0345 -0.23162,-0.0615 -0.28515,-0.084 -0.0518,-0.0242 -0.0762,-0.05 -0.0762,-0.0742 v -1.65039 c 0,-0.0967 -0.018,-0.17917 -0.0508,-0.25 -0.0311,-0.0725 -0.0734,-0.13302 -0.12695,-0.17969 -0.0518,-0.0466 -0.11254,-0.0811 -0.18164,-0.10351 -0.0691,-0.0225 -0.14056,-0.0332 -0.21484,-0.0332 -0.0674,0 -0.14432,0.0162 -0.23242,0.0508 -0.0864,0.0328 -0.17625,0.0825 -0.26954,0.14648 -0.0933,0.0622 -0.18579,0.13891 -0.27734,0.23047 -0.0916,0.0898 -0.17595,0.19285 -0.25195,0.30859 l -0.0273,-0.64648 z m -6.83203,0.0781 v 0.11133 c 0.17276,0.0397 0.26571,0.0928 0.28125,0.16015 l 0.67968,2.21485 c 0.0225,-0.005 0.0512,-0.0131 0.084,-0.0234 0.0346,-0.009 0.069,-0.022 0.10351,-0.041 0.0345,-0.0173 0.0641,-0.0385 0.0918,-0.0645 0.0294,-0.0276 0.0526,-0.0618 0.0664,-0.10156 l 0.53125,-1.52539 0.61523,1.75586 c 0.0225,-0.005 0.0514,-0.0131 0.0859,-0.0234 0.0363,-0.0103 0.0731,-0.024 0.10937,-0.043 0.0363,-0.0173 0.0683,-0.0385 0.0977,-0.0644 0.0311,-0.0277 0.0521,-0.0616 0.0625,-0.0996 l 0.57226,-1.98438 c 0.005,-0.0207 0.0106,-0.0389 0.0176,-0.0527 0.009,-0.0156 0.0218,-0.0287 0.0391,-0.0391 0.019,-0.0121 0.0451,-0.0229 0.0762,-0.0332 0.0311,-0.0121 0.0734,-0.0231 0.12695,-0.0351 v -0.11133 h -0.8418 v 0.11133 c 0.11918,0.019 0.20138,0.0402 0.24805,0.0644 0.0467,0.0242 0.0651,0.056 0.0547,0.0957 l -0.44727,1.64454 -0.67383,-1.91602 h -0.17968 l -0.63672,1.91602 -0.48828,-1.64454 c -0.005,-0.0155 -0.008,-0.0313 -0.008,-0.0469 0.002,-0.0155 0.0125,-0.0311 0.0332,-0.0449 0.0207,-0.0155 0.0549,-0.0267 0.10156,-0.0371 0.0466,-0.0121 0.11263,-0.0226 0.19727,-0.0312 v -0.11133 z m -6.857426,0.19141 c 0.07428,0 0.140032,0.0107 0.195312,0.0332 0.057,0.0225 0.104798,0.0516 0.144532,0.0879 0.03971,0.0345 0.0715,0.0742 0.0957,0.11914 0.0259,0.0449 0.0468,0.0901 0.0605,0.13672 0.0154,0.0449 0.0259,0.0896 0.0312,0.13281 0.005,0.0432 0.008,0.0803 0.008,0.11133 0,0.0363 -0.008,0.0624 -0.0215,0.0762 -0.0121,0.0121 -0.0384,0.0176 -0.0781,0.0176 h -1.105468 c 0.01727,-0.1071 0.04402,-0.20487 0.08203,-0.29297 0.03973,-0.0881 0.08948,-0.16241 0.146485,-0.22461 0.05873,-0.0622 0.124937,-0.11195 0.199218,-0.14648 0.07428,-0.0345 0.154087,-0.0508 0.242188,-0.0508 z m -6.347656,0.0156 c 0.0881,0 0.17775,0.0268 0.267578,0.082 0.08983,0.0553 0.169634,0.13156 0.242187,0.22657 0.07255,0.0933 0.132821,0.20179 0.177735,0.32617 0.04491,0.12265 0.06641,0.2522 0.06641,0.38867 0,0.14856 -0.01338,0.28119 -0.04102,0.40039 -0.02764,0.11919 -0.07017,0.22199 -0.128906,0.30664 -0.05701,0.0846 -0.130875,0.1506 -0.220703,0.19727 -0.0881,0.0449 -0.193757,0.0664 -0.316407,0.0664 -0.07946,0 -0.164078,-0.0265 -0.253906,-0.0801 -0.0881,-0.0553 -0.16986,-0.12937 -0.24414,-0.22265 -0.07428,-0.0933 -0.135227,-0.20157 -0.183594,-0.32422 -0.04837,-0.12438 -0.07227,-0.25416 -0.07227,-0.39063 0,-0.1382 0.01097,-0.26752 0.03516,-0.38672 0.02418,-0.11919 0.06386,-0.22222 0.119141,-0.30859 0.05701,-0.0881 0.130875,-0.1569 0.220703,-0.20703 0.08983,-0.0501 0.200744,-0.0742 0.332032,-0.0742 z m 12.398432,0.9375 v 0.67578 c -0.13128,0.11404 -0.25558,0.19842 -0.37304,0.25196 -0.11574,0.0518 -0.22448,0.0781 -0.32813,0.0781 -0.0225,0 -0.0512,-0.005 -0.084,-0.0137 -0.0311,-0.009 -0.0607,-0.0246 -0.0918,-0.0488 -0.0294,-0.0259 -0.0554,-0.0603 -0.0762,-0.10352 -0.0207,-0.0432 -0.0312,-0.0989 -0.0312,-0.16796 0,-0.0708 0.0131,-0.1392 0.0391,-0.20313 0.0259,-0.0657 0.0658,-0.1242 0.1211,-0.17773 0.0553,-0.0536 0.12629,-0.10089 0.21093,-0.14063 0.0864,-0.0397 0.18722,-0.0711 0.30469,-0.0918 z m 6.04883,0 v 0.67578 c -0.13128,0.11404 -0.25558,0.19842 -0.37304,0.25196 -0.11574,0.0518 -0.22644,0.0781 -0.33008,0.0781 -0.0225,0 -0.0492,-0.005 -0.082,-0.0137 -0.0311,-0.009 -0.0627,-0.0246 -0.0937,-0.0488 -0.0294,-0.0259 -0.0535,-0.0603 -0.0742,-0.10352 -0.0207,-0.0432 -0.0312,-0.0989 -0.0312,-0.16796 0,-0.0708 0.0131,-0.1392 0.0391,-0.20313 0.0259,-0.0657 0.0658,-0.1242 0.12109,-0.17773 0.0553,-0.0536 0.12434,-0.10089 0.20899,-0.14063 0.0864,-0.0397 0.18917,-0.0711 0.30664,-0.0918 z"/></g><g id="layer1-2" transform="matrix(0.26395022,0,0,0.26395022,19.767471,30.95672)"><path id="path80319" d="m 226.87888,353.17562 2.4652,-4.27042 c 0.13911,-0.2394 0.055,-0.54351 -0.18117,-0.68262 -0.23617,-0.13911 -0.54351,-0.0583 -0.67939,0.18117 l -2.49754,4.32542 c -1.90552,-0.87026 -4.05043,-1.35554 -6.35711,-1.35554 -2.30667,0 -4.45159,0.48528 -6.3571,1.35554 l -2.49755,-4.32542 c -0.13911,-0.23941 -0.44322,-0.32028 -0.68263,-0.18117 -0.23939,0.13911 -0.32028,0.44322 -0.18116,0.68262 l 2.46519,4.27042 c -4.251,2.30344 -7.13031,6.60621 -7.60587,11.64337 h 29.71824 c -0.47557,-5.03716 -3.35487,-9.33993 -7.60911,-11.64337 z m -14.07298,7.47 c -0.68909,0 -1.24554,-0.55968 -1.24554,-1.24554 0,-0.68909 0.55969,-1.24554 1.24554,-1.24554 0.68909,0 1.24555,0.55968 1.24555,1.24554 0.003,0.68586 -0.55646,1.24554 -1.24555,1.24554 z m 13.6427,0 c -0.68909,0 -1.24554,-0.55968 -1.24554,-1.24554 0,-0.68909 0.55969,-1.24554 1.24554,-1.24554 0.6891,0 1.24555,0.55968 1.24555,1.24554 0.003,0.68586 -0.55645,1.24554 -1.24555,1.24554 z" class="st0" style="fill:#32de84;fill-opacity:1;stroke-width:.03235167"/></g></g></g><style id="style80315" type="text/css">.st0{fill:#32de84}</style></svg>